# File created by Blade
# Date/Time:  Wed Sep 24 20:21:23 2014
# Frame Rate: 120.000 fps
#------------------------------------------------------
:FULLY-SPECIFIED
:DEGREES
1261
root -2.659853 32.691498 -5.010347 10.723306 -1.186000 -1.588530
Spine -6.736073 6.610982 -2.587685
Head -1.987132 -19.150063 15.891995
LeftShoulder -4.590210 16.908076 11.460821
LeftArm 31.054079 39.117300 -69.624897
LeftForeArm -1.969916 0.000000 22.243278
LeftHand -25.302911 -0.000000 -1.866806
LeftHandThumb1 -26.253704 0.000000 33.147579
RightShoulder -15.759840 20.767599 -30.279206
RightArm 24.146359 -24.636097 89.558615
RightForeArm -26.550810 -0.000000 135.175492
RightHand -3.401045 0.000000 -13.722740
RightHandThumb1 -24.326973 -0.000000 -32.862282
LeftUpLeg -6.832007 14.204774 0.044555
LeftLeg -0.654973 -0.000000 0.000000
LeftFoot -13.150148 9.431472 -15.551537
LeftToeBase 7.425321 -0.000000 -0.000000
RightUpLeg -10.279686 -3.826053 -0.807723
RightLeg 5.801657 -0.000000 -0.000000
RightFoot -10.585741 -4.887935 -5.734380
RightToeBase -1.324367 -0.000000 0.000000
1262
root -2.663586 32.690921 -4.988706 10.753686 -1.201396 -1.597276
Spine -6.849833 6.639346 -2.529736
Head -2.000548 -19.145285 15.788223
LeftShoulder -4.642279 16.981980 11.413921
LeftArm 31.045385 39.052362 -69.591946
LeftForeArm -1.973931 -0.000000 22.252741
LeftHand -25.347158 0.000000 -1.844900
LeftHandThumb1 -26.253704 0.000000 33.147579
RightShoulder -15.761679 20.688588 -30.264027
RightArm 24.142668 -24.650241 89.501700
RightForeArm -26.656290 0.000000 135.227264
RightHand -3.335756 -0.000000 -13.707895
RightHandThumb1 -24.326973 -0.000000 -32.862282
LeftUpLeg -6.819983 14.204429 0.050523
LeftLeg -0.661129 -0.000000 0.000000
LeftFoot -13.220254 9.477765 -15.655262
LeftToeBase 7.455316 -0.000000 -0.000000
RightUpLeg -10.246254 -3.829266 -0.794796
RightLeg 5.744429 -0.000000 -0.000000
RightFoot -10.582385 -4.840934 -5.723856
RightToeBase -1.404517 -0.000000 0.000000
1263
root -2.665160 32.691468 -4.969650 10.788030 -1.240027 -1.600087
Spine -6.967469 6.689626 -2.480816
Head -1.999017 -19.125084 15.674454
LeftShoulder -4.667364 17.020011 11.378860
LeftArm 30.982503 38.983061 -69.599757
LeftForeArm -1.958803 -0.000000 22.270246
LeftHand -25.369870 -0.000000 -1.910440
LeftHandThumb1 -26.253704 0.000000 33.147579
RightShoulder -15.778773 20.598315 -30.241646
RightArm 24.193406 -24.743051 89.395693
RightForeArm -27.169361 -0.000000 135.200638
RightHand -3.296999 -0.000000 -14.006199
RightHandThumb1 -24.326973 -0.000000 -32.862282
LeftUpLeg -6.815243 14.230653 0.044570
LeftLeg -0.665781 -0.000000 0.000000
LeftFoot -13.255364 9.530634 -15.516927
LeftToeBase 7.609917 -0.000000 -0.000000
RightUpLeg -10.231171 -3.782020 -0.801039
RightLeg 5.705457 -0.000000 -0.000000
RightFoot -10.587118 -4.831610 -5.664763
RightToeBase -1.366086 -0.000000 0.000000
1264
root -2.669959 32.691083 -4.946845 10.822791 -1.258071 -1.615098
Spine -7.087264 6.702574 -2.420001
Head -2.019464 -19.090035 15.580230
LeftShoulder -4.733914 17.077489 11.345326
LeftArm 30.972579 38.959636 -69.563213
LeftForeArm -1.969504 -0.000000 22.261604
LeftHand -25.296594 -0.000000 -1.973250
LeftHandThumb1 -26.253704 0.000000 33.147579
RightShoulder -15.794054 20.454446 -30.213053
RightArm 24.272128 -24.809028 89.300201
RightForeArm -27.473922 -0.000000 135.215367
RightHand -3.278894 -0.000000 -14.107756
RightHandThumb1 -24.326973 -0.000000 -32.862282
LeftUpLeg -6.802718 14.259165 0.063759
LeftLeg -0.675103 -0.000000 0.000000
LeftFoot -13.279088 9.517272 -15.516580
LeftToeBase 7.613199 -0.000000 -0.000000
RightUpLeg -10.193571 -3.769863 -0.782973
RightLeg 5.634862 -0.000000 -0.000000
RightFoot -10.575511 -4.815798 -5.686927
RightToeBase -1.403344 -0.000000 0.000000
1265
root -2.675518 32.691336 -4.923232 10.850328 -1.286791 -1.638011
Spine -7.209144 6.738661 -2.366161
Head -2.012548 -19.061908 15.519834
LeftShoulder -4.766491 17.118814 11.334604
LeftArm 30.922148 38.923842 -69.569808
LeftForeArm -1.962538 0.000000 22.256555
LeftHand -25.246326 -0.000000 -1.924199
LeftHandThumb1 -26.253704 0.000000 33.147579
RightShoulder -15.795271 20.395441 -30.152622
RightArm 24.252999 -24.811092 89.257114
RightForeArm -27.702341 0.000000 135.247684
RightHand -3.280052 -0.000000 -14.110766
RightHandThumb1 -24.326973 -0.000000 -32.862282
LeftUpLeg -6.774672 14.311420 0.099239
LeftLeg -0.687205 -0.000000 0.000000
LeftFoot -13.262105 9.458747 -15.453574
LeftToeBase 7.525760 -0.000000 -0.000000
RightUpLeg -10.147916 -3.722960 -0.761827
RightLeg 5.568931 -0.000000 -0.000000
RightFoot -10.566707 -4.807724 -5.656586
RightToeBase -1.389724 -0.000000 0.000000
1266
root -2.681884 32.691115 -4.901272 10.882366 -1.269675 -1.651164
Spine -7.331292 6.736473 -2.298269
Head -2.003073 -19.032387 15.382769
LeftShoulder -4.756903 17.124016 11.323101
LeftArm 30.815968 38.896432 -69.595414
LeftForeArm -1.942649 -0.000000 22.271368
LeftHand -25.277975 -0.000000 -1.935440
LeftHandThumb1 -26.253704 0.000000 33.147579
RightShoulder -15.807774 20.503269 -30.169375
RightArm 24.027917 -24.829422 89.296428
RightForeArm -28.022427 -0.000000 135.257210
RightHand -3.306867 -0.000000 -14.299026
RightHandThumb1 -24.326973 -0.000000 -32.862282
LeftUpLeg -6.767659 14.323784 0.118638
LeftLeg -0.691267 -0.000000 0.000000
LeftFoot -13.294185 9.436065 -15.693975
LeftToeBase 7.406981 -0.000000 -0.000000
RightUpLeg -10.107681 -3.724837 -0.741309
RightLeg 5.505371 -0.000000 -0.000000
RightFoot -10.570187 -4.791483 -5.626082
RightToeBase -1.391431 -0.000000 0.000000
